<svg width="103" height="162" viewBox="0 0 103 162" fill="none" xmlns="http://www.w3.org/2000/svg">
<circle cx="51.5" cy="110.5" r="51.5" fill="url(#paint0_linear_348_380)"/>
<path d="M32.0732 97.3799H48.6406V113.186C48.6406 118.052 47.4134 122.072 44.959 125.246C42.4622 128.42 38.8441 130.684 34.1045 132.038L32.1367 126.071C33.7448 125.521 35.0778 124.929 36.1357 124.294C37.1937 123.701 38.04 123.003 38.6748 122.199C39.3096 121.438 39.7539 120.549 40.0078 119.533C40.2617 118.518 40.3887 117.333 40.3887 115.979H32.0732V97.3799Z" fill="white"/>
<path d="M58.0732 97.3799H74.6406V113.186C74.6406 118.052 73.4134 122.072 70.959 125.246C68.4622 128.42 64.8441 130.684 60.1045 132.038L58.1367 126.071C59.7448 125.521 61.0778 124.929 62.1357 124.294C63.1937 123.701 64.04 123.003 64.6748 122.199C65.3096 121.438 65.7539 120.549 66.0078 119.533C66.2617 118.518 66.3887 117.333 66.3887 115.979H58.0732V97.3799Z" fill="white"/>
<defs>
<linearGradient id="paint0_linear_348_380" x1="51.5" y1="59" x2="51.5" y2="162" gradientUnits="userSpaceOnUse">
<stop stop-color="#9DBC4C"/>
<stop offset="1" stop-color="#80C05A"/>
</linearGradient>
</defs>
</svg>
