<svg width="128" height="39" viewBox="0 0 128 39" fill="none" xmlns="http://www.w3.org/2000/svg">
<path d="M0 39C0 17.4609 17.4609 0 39 0H128C128 21.5391 110.539 39 89 39H0Z" fill="white"/>
<path d="M38.2734 16.3984C38.2005 15.7161 37.8932 15.1849 37.3516 14.8047C36.8151 14.4245 36.1172 14.2344 35.2578 14.2344C34.6536 14.2344 34.1354 14.3255 33.7031 14.5078C33.2708 14.6901 32.9401 14.9375 32.7109 15.25C32.4818 15.5625 32.3646 15.9193 32.3594 16.3203C32.3594 16.6536 32.4349 16.9427 32.5859 17.1875C32.7422 17.4323 32.9531 17.6406 33.2188 17.8125C33.4844 17.9792 33.7786 18.1198 34.1016 18.2344C34.4245 18.349 34.75 18.4453 35.0781 18.5234L36.5781 18.8984C37.1823 19.0391 37.763 19.2292 38.3203 19.4687C38.8828 19.7083 39.3854 20.0104 39.8281 20.375C40.276 20.7396 40.6302 21.1797 40.8906 21.6953C41.151 22.2109 41.2813 22.8151 41.2813 23.5078C41.2813 24.4453 41.0417 25.2708 40.5625 25.9844C40.0833 26.6927 39.3906 27.2474 38.4844 27.6484C37.5833 28.0443 36.4922 28.2422 35.2109 28.2422C33.9661 28.2422 32.8854 28.0495 31.9688 27.6641C31.0573 27.2786 30.3438 26.7161 29.8281 25.9766C29.3177 25.237 29.0417 24.3359 29 23.2734H31.8516C31.8932 23.8307 32.0651 24.2943 32.3672 24.6641C32.6693 25.0339 33.0625 25.3099 33.5469 25.4922C34.0365 25.6745 34.5833 25.7656 35.1875 25.7656C35.8177 25.7656 36.3698 25.6719 36.8438 25.4844C37.3229 25.2917 37.6979 25.026 37.9688 24.6875C38.2396 24.3437 38.3776 23.9427 38.3828 23.4844C38.3776 23.0677 38.2552 22.724 38.0156 22.4531C37.776 22.1771 37.4401 21.9479 37.0078 21.7656C36.5807 21.5781 36.0807 21.4115 35.5078 21.2656L33.6875 20.7969C32.3698 20.4583 31.3281 19.9453 30.5625 19.2578C29.8021 18.5651 29.4219 17.6458 29.4219 16.5C29.4219 15.5573 29.6771 14.7318 30.1875 14.0234C30.7031 13.3151 31.4036 12.7656 32.2891 12.375C33.1745 11.9792 34.1771 11.7812 35.2969 11.7812C36.4323 11.7812 37.4271 11.9792 38.2813 12.375C39.1406 12.7656 39.8151 13.3099 40.3047 14.0078C40.7943 14.7005 41.0469 15.4974 41.0625 16.3984H38.2734ZM43.7402 28V16H46.5684V28H43.7402ZM45.1621 14.2969C44.7142 14.2969 44.3288 14.1484 44.0059 13.8516C43.6829 13.5495 43.5215 13.1875 43.5215 12.7656C43.5215 12.3385 43.6829 11.9766 44.0059 11.6797C44.3288 11.3776 44.7142 11.2266 45.1621 11.2266C45.6152 11.2266 46.0007 11.3776 46.3184 11.6797C46.6413 11.9766 46.8027 12.3385 46.8027 12.7656C46.8027 13.1875 46.6413 13.5495 46.3184 13.8516C46.0007 14.1484 45.6152 14.2969 45.1621 14.2969ZM52.9297 28.2422C52.1693 28.2422 51.4844 28.1068 50.875 27.8359C50.2708 27.5599 49.7917 27.1536 49.4375 26.6172C49.0885 26.0807 48.9141 25.4193 48.9141 24.6328C48.9141 23.9557 49.0391 23.3958 49.2891 22.9531C49.5391 22.5104 49.8802 22.1562 50.3125 21.8906C50.7448 21.625 51.2318 21.4245 51.7734 21.2891C52.3203 21.1484 52.8854 21.0469 53.4688 20.9844C54.1719 20.9115 54.7422 20.8464 55.1797 20.7891C55.6172 20.7266 55.9349 20.6328 56.1328 20.5078C56.3359 20.3776 56.4375 20.1771 56.4375 19.9062V19.8594C56.4375 19.2708 56.263 18.8151 55.9141 18.4922C55.5651 18.1693 55.0625 18.0078 54.4063 18.0078C53.7135 18.0078 53.1641 18.1589 52.7578 18.4609C52.3568 18.763 52.0859 19.1198 51.9453 19.5312L49.3047 19.1562C49.513 18.4271 49.8568 17.8177 50.3359 17.3281C50.8151 16.8333 51.401 16.4635 52.0937 16.2187C52.7865 15.9688 53.5521 15.8438 54.3906 15.8438C54.9688 15.8438 55.5443 15.9115 56.1172 16.0469C56.6901 16.1823 57.2135 16.4062 57.6875 16.7187C58.1615 17.026 58.5417 17.4453 58.8281 17.9766C59.1198 18.5078 59.2656 19.1719 59.2656 19.9687V28H56.5469V26.3516H56.4531C56.2813 26.6849 56.0391 26.9974 55.7266 27.2891C55.4193 27.5755 55.0313 27.8073 54.5625 27.9844C54.099 28.1563 53.5547 28.2422 52.9297 28.2422ZM53.6641 26.1641C54.2318 26.1641 54.724 26.0521 55.1406 25.8281C55.5573 25.599 55.8776 25.2969 56.1016 24.9219C56.3307 24.5469 56.4453 24.138 56.4453 23.6953V22.2812C56.3568 22.3542 56.2057 22.4219 55.9922 22.4844C55.7839 22.5469 55.5495 22.6016 55.2891 22.6484C55.0286 22.6953 54.7708 22.737 54.5156 22.7734C54.2604 22.8099 54.0391 22.8411 53.8516 22.8672C53.4297 22.9245 53.0521 23.0182 52.7188 23.1484C52.3854 23.2786 52.1224 23.4609 51.9297 23.6953C51.737 23.9245 51.6406 24.2214 51.6406 24.5859C51.6406 25.1068 51.8307 25.5 52.2109 25.7656C52.5911 26.0312 53.0755 26.1641 53.6641 26.1641ZM64.6875 24.2344L64.6797 20.8203H65.1328L69.4453 16H72.75L67.4453 21.9062H66.8594L64.6875 24.2344ZM62.1094 28V12H64.9375V28H62.1094ZM69.6406 28L65.7344 22.5391L67.6406 20.5469L73.0234 28H69.6406ZM77.2129 24.2344L77.2051 20.8203H77.6582L81.9707 16H85.2754L79.9707 21.9062H79.3848L77.2129 24.2344ZM74.6348 28V12H77.4629V28H74.6348ZM82.166 28L78.2598 22.5391L80.166 20.5469L85.5488 28H82.166ZM94.8086 22.9531V16H97.6367V28H94.8945V25.8672H94.7695C94.4987 26.5391 94.0534 27.0885 93.4336 27.5156C92.819 27.9427 92.0612 28.1563 91.1602 28.1563C90.3737 28.1563 89.6784 27.9818 89.0742 27.6328C88.4753 27.2786 88.0065 26.7656 87.668 26.0938C87.3294 25.4167 87.1602 24.599 87.1602 23.6406V16H89.9883V23.2031C89.9883 23.9635 90.1966 24.5677 90.6133 25.0156C91.0299 25.4635 91.5768 25.6875 92.2539 25.6875C92.6706 25.6875 93.0742 25.5859 93.4648 25.3828C93.8555 25.1797 94.1758 24.8776 94.4258 24.4766C94.681 24.0703 94.8086 23.5625 94.8086 22.9531Z" fill="#65AF2B"/>
</svg>
