<svg width="56" height="56" viewBox="0 0 56 56" fill="none" xmlns="http://www.w3.org/2000/svg">
<path d="M28.0023 4.6665C15.1106 4.6665 4.66895 15.1082 4.66895 27.9998C4.66614 32.8979 6.20568 37.6724 9.06917 41.6462C11.9327 45.62 15.9747 48.5913 20.6219 50.1385C21.7886 50.3415 22.2273 49.6415 22.2273 49.0278C22.2273 48.4748 22.1969 46.6385 22.1969 44.6832C16.3356 45.7635 14.8189 43.2552 14.3523 41.9415C14.0886 41.2695 12.9523 39.1998 11.9606 38.6445C11.1439 38.2082 9.97728 37.1278 11.9303 37.0998C13.7689 37.0695 15.0803 38.7915 15.5189 39.4915C17.6189 43.0195 20.9719 42.0278 22.3136 41.4165C22.5189 39.8998 23.1303 38.8802 23.8023 38.2968C18.6106 37.7135 13.1856 35.6998 13.1856 26.7748C13.1856 24.2362 14.0886 22.1385 15.5773 20.5052C15.3439 19.9218 14.5273 17.5302 15.8106 14.3218C15.8106 14.3218 17.7636 13.7082 22.2273 16.7112C24.1269 16.1848 26.0894 15.9202 28.0606 15.9248C30.0439 15.9248 32.0273 16.1862 33.8939 16.7112C38.3576 13.6778 40.3106 14.3218 40.3106 14.3218C41.5939 17.5302 40.7773 19.9218 40.5439 20.5052C42.0303 22.1385 42.9356 24.2082 42.9356 26.7748C42.9356 35.7302 37.4826 37.7135 32.2909 38.2968C33.1356 39.0248 33.8659 40.4248 33.8659 42.6135C33.8659 45.7332 33.8356 48.2415 33.8356 49.0302C33.8356 49.6415 34.2743 50.3695 35.4409 50.1362C40.0722 48.572 44.0965 45.5949 46.9473 41.624C49.7982 37.6531 51.3321 32.8882 51.3333 27.9998C51.3333 15.1082 40.8916 4.6665 27.9999 4.6665" fill="#65AF2B"/>
</svg>
