<svg width="54" height="54" viewBox="0 0 54 54" fill="none" xmlns="http://www.w3.org/2000/svg">
<path d="M29.3128 4.5C31.8441 4.50675 33.1288 4.52025 34.2381 4.55175L34.6746 4.5675C35.1786 4.5855 35.6758 4.608 36.2766 4.635C38.6706 4.7475 40.3041 5.1255 41.7373 5.68125C43.2223 6.25275 44.4733 7.02675 45.7243 8.2755C46.8684 9.40027 47.7537 10.7608 48.3186 12.2625C48.8743 13.6957 49.2523 15.3292 49.3648 17.7255C49.3918 18.324 49.4143 18.8212 49.4323 19.3275L49.4458 19.764C49.4796 20.871 49.4931 22.1558 49.4976 24.687L49.4998 26.3655V29.313C49.5054 30.9542 49.4881 32.5953 49.4481 34.236L49.4346 34.6725C49.4166 35.1787 49.3941 35.676 49.3671 36.2745C49.2546 38.6707 48.8721 40.302 48.3186 41.7375C47.7554 43.24 46.8699 44.6009 45.7243 45.7245C44.5993 46.8682 43.2388 47.7534 41.7373 48.3188C40.3041 48.8745 38.6706 49.2525 36.2766 49.365C35.7427 49.3901 35.2087 49.4126 34.6746 49.4325L34.2381 49.446C33.1288 49.4775 31.8441 49.4933 29.3128 49.4977L27.6343 49.5H24.6891C23.0472 49.5057 21.4053 49.4884 19.7638 49.4482L19.3273 49.4348C18.7932 49.4145 18.2592 49.3913 17.7253 49.365C15.3313 49.2525 13.6978 48.8745 12.2623 48.3188C10.7608 47.7548 9.40082 46.8694 8.27758 45.7245C7.13244 44.6001 6.24634 43.2395 5.68108 41.7375C5.12533 40.3042 4.74733 38.6707 4.63483 36.2745C4.60977 35.7406 4.58727 35.2066 4.56733 34.6725L4.55608 34.236C4.51462 32.5953 4.49587 30.9542 4.49983 29.313V24.687C4.49355 23.0459 4.51006 21.4047 4.54933 19.764L4.56508 19.3275C4.58308 18.8212 4.60558 18.324 4.63258 17.7255C4.74508 15.3292 5.12308 13.698 5.67883 12.2625C6.24384 10.7593 7.1317 9.3983 8.27983 8.2755C9.40279 7.13132 10.7619 6.24597 12.2623 5.68125C13.6978 5.1255 15.3291 4.7475 17.7253 4.635C18.3238 4.608 18.8233 4.5855 19.3273 4.5675L19.7638 4.554C21.4045 4.51402 23.0457 4.49677 24.6868 4.50225L29.3128 4.5ZM26.9998 15.75C24.0161 15.75 21.1547 16.9353 19.0449 19.045C16.9351 21.1548 15.7498 24.0163 15.7498 27C15.7498 29.9837 16.9351 32.8452 19.0449 34.955C21.1547 37.0647 24.0161 38.25 26.9998 38.25C29.9835 38.25 32.845 37.0647 34.9548 34.955C37.0646 32.8452 38.2498 29.9837 38.2498 27C38.2498 24.0163 37.0646 21.1548 34.9548 19.045C32.845 16.9353 29.9835 15.75 26.9998 15.75ZM26.9998 20.25C27.8863 20.2499 28.764 20.4243 29.583 20.7634C30.402 21.1025 31.1462 21.5995 31.7731 22.2262C32.4 22.8529 32.8974 23.597 33.2367 24.4158C33.5761 25.2347 33.7508 26.1125 33.751 26.9989C33.7511 27.8853 33.5767 28.7631 33.2376 29.5821C32.8985 30.4011 32.4014 31.1453 31.7747 31.7722C31.148 32.3991 30.404 32.8964 29.5851 33.2358C28.7662 33.5751 27.8885 33.7499 27.0021 33.75C25.2119 33.75 23.495 33.0388 22.2291 31.773C20.9632 30.5071 20.2521 28.7902 20.2521 27C20.2521 25.2098 20.9632 23.4929 22.2291 22.227C23.495 20.9612 25.2119 20.25 27.0021 20.25M38.8146 12.375C38.0687 12.375 37.3533 12.6713 36.8258 13.1988C36.2984 13.7262 36.0021 14.4416 36.0021 15.1875C36.0021 15.9334 36.2984 16.6488 36.8258 17.1762C37.3533 17.7037 38.0687 18 38.8146 18C39.5605 18 40.2759 17.7037 40.8033 17.1762C41.3308 16.6488 41.6271 15.9334 41.6271 15.1875C41.6271 14.4416 41.3308 13.7262 40.8033 13.1988C40.2759 12.6713 39.5605 12.375 38.8146 12.375Z" fill="#65AF2B"/>
</svg>
